<svg xmlns="http://www.w3.org/2000/svg" viewBox="0 0 80 80">
  <defs>
    <filter id="shadow" x="-20%" y="-20%" width="140%" height="140%">
      <feDropShadow dx="0" dy="2" stdDeviation="2" flood-color="#1f0d03" flood-opacity="0.35"/>
    </filter>
  </defs>
  <g filter="url(#shadow)">
    <path d="M34 18c-8 0-12 6-12 14 0 6 4 10 8 12-2 4-5 8-5 12 0 8 8 14 16 14s16-6 16-14c0-4-3-8-5-12 4-2 8-6 8-12 0-8-4-14-12-14-3 0-6 1-8 3-2-2-5-3-8-3z" fill="#6b3b1a" stroke="#2c1408" stroke-width="4" stroke-linejoin="round"/>
    <circle cx="32" cy="34" r="3" fill="#2c1408"/>
    <circle cx="48" cy="34" r="3" fill="#2c1408"/>
    <path d="M28 54h24" stroke="#2c1408" stroke-width="4" stroke-linecap="round"/>
  </g>
</svg>
